<?xml version="1.0" encoding="utf-8"?><svg width="60" height="60" fill="none" xmlns="http://www.w3.org/2000/svg" viewBox="0 0 60 60"><g fill="#fff"><path fill-rule="evenodd" clip-rule="evenodd" d="M30.5 35.406a5.906 5.906 0 100-11.812 5.906 5.906 0 000 11.812zm0-1.687a4.219 4.219 0 100-8.438 4.219 4.219 0 000 8.438z"/><path d="M38.094 23.594a.844.844 0 100-1.688.844.844 0 000 1.688z"/><path fill-rule="evenodd" clip-rule="evenodd" d="M24.594 16A7.594 7.594 0 0017 23.594v11.812C17 39.6 20.4 43 24.594 43h11.812C40.6 43 44 39.6 44 35.406V23.594C44 19.4 40.6 16 36.406 16H24.594zm11.812 1.688H24.594a5.906 5.906 0 00-5.907 5.906v11.812a5.906 5.906 0 005.907 5.907h11.812a5.906 5.906 0 005.907-5.907V23.594a5.906 5.906 0 00-5.907-5.907z"/></g></svg>