<?xml version="1.0" encoding="utf-8"?><svg width="60" height="60" fill="none" xmlns="http://www.w3.org/2000/svg" viewBox="0 0 60 60"><path fill-rule="evenodd" clip-rule="evenodd" d="M44.944 20.097l-5 18.989c-.453 1.72-2.495 2.41-3.943 1.534-1.185-.718-3.651-2.136-8.488-4.68-.963-.506-1.308-1.825-.482-2.718l2.41-2.604-3.951 2.119c-1.275.683-2.852 1.081-4.48.749-2.208-.451-4.282-1.26-4.908-1.515-1.576-.642-1.362-2.684.012-3.233l26.524-10.61c1.303-.521 2.657.634 2.306 1.969zM16.758 30.28c-.07.027-.072.122-.002.15.595.242 2.552 1.004 4.603 1.423 1.134.232 2.296-.035 3.312-.58l11.489-6.16c.253-.136.506.178.312.387l-8.178 8.84c-.037.04-.024.105.025.13 4.854 2.554 7.352 3.989 8.578 4.731.52.314 1.245.046 1.398-.532l4.999-18.99c.002-.006-.005-.012-.012-.009l-26.524 10.61z" fill="#fff"/></svg>