<?xml version="1.0" encoding="utf-8"?><svg width="60" height="60" fill="none" xmlns="http://www.w3.org/2000/svg" viewBox="0 0 60 60"><g fill="#fff"><path d="M37.194 25.692a.75.75 0 00-1.497-.102c-.111 1.64-.858 2.68-1.572 3.321-.671.602-1.517 1.058-2.427 1.122-.196.014-.398.02-.597.019v-4.41a.75.75 0 00-.75-.75h-1.225a.75.75 0 000 1.5h.475v6.664c-2.524-.916-3.798-2.363-4.463-3.712-.759-1.542-.763-3.038-.763-3.703a.75.75 0 00-1.5 0v.01c0 .704 0 2.491.918 4.355.938 1.907 2.796 3.813 6.358 4.797a.75.75 0 00.95-.723v-2.528c.229 0 .467-.006.702-.023a4.866 4.866 0 001.108-.19c.599.437 1.228 1.079 1.763 1.71.309.365.573.711.768.989.098.139.175.256.23.347.046.074.067.114.073.126l.001.002a.75.75 0 001.399-.542c-.081-.208-.273-.508-.476-.796a15.854 15.854 0 00-.85-1.094 14.153 14.153 0 00-1.434-1.479c.233-.155.486-.345.741-.574.947-.85 1.925-2.234 2.068-4.336z"/><path fill-rule="evenodd" clip-rule="evenodd" d="M42.105 41.105C44 39.211 44 36.161 44 30.063v-1.125c0-6.1 0-9.149-1.895-11.043C40.211 16 37.161 16 31.063 16h-1.125c-6.1 0-9.149 0-11.043 1.895C17 19.789 17 22.839 17 28.938v1.125c0 6.098 0 9.148 1.895 11.042C20.789 43 23.839 43 29.938 43h1.125c6.098 0 9.148 0 11.042-1.895zm.32-4.124c-.216 1.611-.62 2.515-1.274 3.17-.655.654-1.559 1.057-3.17 1.274-1.651.222-3.83.225-6.919.225h-1.125c-3.087 0-5.267-.003-6.918-.225-1.611-.216-2.515-.62-3.17-1.274-.654-.655-1.058-1.559-1.274-3.17-.222-1.651-.225-3.83-.225-6.919v-1.125c0-3.087.003-5.267.225-6.918.216-1.611.62-2.515 1.274-3.17.655-.654 1.559-1.058 3.17-1.274 1.651-.222 3.83-.225 6.919-.225h1.125c3.087 0 5.267.003 6.918.225 1.611.216 2.515.62 3.17 1.274.654.655 1.057 1.559 1.274 3.17.222 1.651.225 3.83.225 6.919v1.125c0 3.087-.003 5.267-.225 6.918z"/></g></svg>