<svg width="60" height="60" viewBox="0 0 60 60" fill="none" xmlns="http://www.w3.org/2000/svg">
<g id="Property 1=Default">
<g id="Vector">
<path fill-rule="evenodd" clip-rule="evenodd" d="M30.5 35.4062C33.7619 35.4062 36.4062 32.7619 36.4062 29.5C36.4062 26.2381 33.7619 23.5938 30.5 23.5938C27.2381 23.5938 24.5938 26.2381 24.5938 29.5C24.5938 32.7619 27.2381 35.4062 30.5 35.4062ZM30.5 33.7188C32.83 33.7188 34.7188 31.83 34.7188 29.5C34.7188 27.17 32.83 25.2812 30.5 25.2812C28.17 25.2812 26.2812 27.17 26.2812 29.5C26.2812 31.83 28.17 33.7188 30.5 33.7188Z" fill="white"/>
<path d="M38.0938 23.5938C38.5597 23.5938 38.9375 23.216 38.9375 22.75C38.9375 22.284 38.5597 21.9062 38.0938 21.9062C37.6278 21.9062 37.25 22.284 37.25 22.75C37.25 23.216 37.6278 23.5938 38.0938 23.5938Z" fill="white"/>
<path fill-rule="evenodd" clip-rule="evenodd" d="M24.5938 16C20.3998 16 17 19.3998 17 23.5938V35.4062C17 39.6002 20.3998 43 24.5938 43H36.4062C40.6002 43 44 39.6002 44 35.4062V23.5938C44 19.3998 40.6002 16 36.4062 16H24.5938ZM36.4062 17.6875H24.5938C21.3318 17.6875 18.6875 20.3318 18.6875 23.5938V35.4062C18.6875 38.6682 21.3318 41.3125 24.5938 41.3125H36.4062C39.6682 41.3125 42.3125 38.6682 42.3125 35.4062V23.5938C42.3125 20.3318 39.6682 17.6875 36.4062 17.6875Z" fill="white"/>
</g>
</g>
</svg>
