<svg width="60" height="60" viewBox="0 0 60 60" fill="none" xmlns="http://www.w3.org/2000/svg"><g id="Property 1=Default"><g id="Vector" fill="#fff"><path fill-rule="evenodd" clip-rule="evenodd" d="M30.5 35.406a5.906 5.906 0 100-11.812 5.906 5.906 0 000 11.812zm0-1.687a4.219 4.219 0 100-8.438 4.219 4.219 0 000 8.438z"/><path d="M38.094 23.594a.844.844 0 100-1.688.844.844 0 000 1.688z"/><path fill-rule="evenodd" clip-rule="evenodd" d="M24.594 16A7.594 7.594 0 0017 23.594v11.812C17 39.6 20.4 43 24.594 43h11.812C40.6 43 44 39.6 44 35.406V23.594C44 19.4 40.6 16 36.406 16H24.594zm11.812 1.688H24.594a5.906 5.906 0 00-5.907 5.906v11.812a5.906 5.906 0 005.907 5.907h11.812a5.906 5.906 0 005.907-5.907V23.594a5.906 5.906 0 00-5.907-5.907z"/></g></g></svg>37.6278 23.5938 38.0938 23.5938Z" fill="white"/>
<path fill-rule="evenodd" clip-rule="evenodd" d="M24.5938 16C20.3998 16 17 19.3998 17 23.5938V35.4062C17 39.6002 20.3998 43 24.5938 43H36.4062C40.6002 43 44 39.6002 44 35.4062V23.5938C44 19.3998 40.6002 16 36.4062 16H24.5938ZM36.4062 17.6875H24.5938C21.3318 17.6875 18.6875 20.3318 18.6875 23.5938V35.4062C18.6875 38.6682 21.3318 41.3125 24.5938 41.3125H36.4062C39.6682 41.3125 42.3125 38.6682 42.3125 35.4062V23.5938C42.3125 20.3318 39.6682 17.6875 36.4062 17.6875Z" fill="white"/>
</g>
</g>
</svg>
