<?xml version="1.0" encoding="utf-8"?><svg viewBox="0 0 101 100" xmlns="http://www.w3.org/2000/svg" xmlns:xlink="http://www.w3.org/1999/xlink"><style>:root>svg{display:none}:root>svg:target{display:block}</style><svg viewBox="0 0 53 53" id="Arrow-Up" xmlns="http://www.w3.org/2000/svg"><path d="M25.638 20.194a1.325 1.325 0 011.725 0l12.366 10.6a1.325 1.325 0 11-1.724 2.012L26.5 22.946l-11.504 9.86a1.325 1.325 0 11-1.725-2.012l12.367-10.6z"/></svg><svg fill="none" viewBox="0 0 100 100" id="add-plus" xmlns="http://www.w3.org/2000/svg"><ellipse cx="50" cy="49.999" rx="50" ry="49.999" transform="matrix(-1 0 0 1 100 0)" fill="#fff"/><path d="M36 49.855h29M50 64V35" stroke="#000" stroke-width="4"/></svg><svg fill="none" viewBox="0 0 100 100" id="addBlackCircle" xmlns="http://www.w3.org/2000/svg"><circle cx="50" cy="50" transform="matrix(-1 0 0 1 100 -.008)" fill="#000" r="50"/><g stroke="#fff" stroke-width="4"><path d="M36 50.477h28.488M50.484 64.48V35.994"/></g></svg><svg fill="none" viewBox="0 0 30 30" id="hamburger" xmlns="http://www.w3.org/2000/svg"><g stroke="red" stroke-width="1.5" stroke-linecap="round"><path d="M23 10H7M23 15H7M23 20H7"/></g></svg><svg fill="none" viewBox="0 0 60 60" id="instagram" xmlns="http://www.w3.org/2000/svg"><g fill="#fff"><path fill-rule="evenodd" clip-rule="evenodd" d="M30.5 35.406a5.906 5.906 0 100-11.812 5.906 5.906 0 000 11.812zm0-1.687a4.219 4.219 0 100-8.438 4.219 4.219 0 000 8.438z"/><path d="M38.094 23.594a.844.844 0 100-1.688.844.844 0 000 1.688z"/><path fill-rule="evenodd" clip-rule="evenodd" d="M24.594 16A7.594 7.594 0 0017 23.594v11.812C17 39.6 20.4 43 24.594 43h11.812C40.6 43 44 39.6 44 35.406V23.594C44 19.4 40.6 16 36.406 16H24.594zm11.812 1.688H24.594a5.906 5.906 0 00-5.907 5.906v11.812a5.906 5.906 0 005.907 5.907h11.812a5.906 5.906 0 005.907-5.907V23.594a5.906 5.906 0 00-5.907-5.907z"/></g></svg><svg fill="none" viewBox="0 0 101 100" id="removeBlackCircle" xmlns="http://www.w3.org/2000/svg"><circle cx="50" cy="50" transform="matrix(-1 0 0 1 100.666 0)" fill="#000" r="50"/><path d="M36.666 50.484h28.488" stroke="#fff" stroke-width="4"/></svg><svg fill="none" viewBox="0 0 60 60" id="telegram" xmlns="http://www.w3.org/2000/svg"><path fill-rule="evenodd" clip-rule="evenodd" d="M44.944 20.097l-5 18.989c-.453 1.72-2.495 2.41-3.943 1.534-1.185-.718-3.651-2.136-8.488-4.68-.963-.506-1.308-1.825-.482-2.718l2.41-2.604-3.951 2.119c-1.275.683-2.852 1.081-4.48.749-2.208-.451-4.282-1.26-4.908-1.515-1.576-.642-1.362-2.684.012-3.233l26.524-10.61c1.303-.521 2.657.634 2.306 1.969zM16.758 30.28c-.07.027-.072.122-.002.15.595.242 2.552 1.004 4.603 1.423 1.134.232 2.296-.035 3.312-.58l11.489-6.16c.253-.136.506.178.312.387l-8.178 8.84c-.037.04-.024.105.025.13 4.854 2.554 7.352 3.989 8.578 4.731.52.314 1.245.046 1.398-.532l4.999-18.99c.002-.006-.005-.012-.012-.009l-26.524 10.61z" fill="#fff"/></svg><svg fill="none" viewBox="0 0 60 60" id="vk" xmlns="http://www.w3.org/2000/svg"><g fill="#fff"><path d="M37.194 25.692a.75.75 0 00-1.497-.102c-.111 1.64-.858 2.68-1.572 3.321-.671.602-1.517 1.058-2.427 1.122-.196.014-.398.02-.597.019v-4.41a.75.75 0 00-.75-.75h-1.225a.75.75 0 000 1.5h.475v6.664c-2.524-.916-3.798-2.363-4.463-3.712-.759-1.542-.763-3.038-.763-3.703a.75.75 0 00-1.5 0v.01c0 .704 0 2.491.918 4.355.938 1.907 2.796 3.813 6.358 4.797a.75.75 0 00.95-.723v-2.528c.229 0 .467-.006.702-.023a4.866 4.866 0 001.108-.19c.599.437 1.228 1.079 1.763 1.71.309.365.573.711.768.989.098.139.175.256.23.347.046.074.067.114.073.126l.001.002a.75.75 0 001.399-.542c-.081-.208-.273-.508-.476-.796a15.854 15.854 0 00-.85-1.094 14.153 14.153 0 00-1.434-1.479c.233-.155.486-.345.741-.574.947-.85 1.925-2.234 2.068-4.336z"/><path fill-rule="evenodd" clip-rule="evenodd" d="M42.105 41.105C44 39.211 44 36.161 44 30.063v-1.125c0-6.1 0-9.149-1.895-11.043C40.211 16 37.161 16 31.063 16h-1.125c-6.1 0-9.149 0-11.043 1.895C17 19.789 17 22.839 17 28.938v1.125c0 6.098 0 9.148 1.895 11.042C20.789 43 23.839 43 29.938 43h1.125c6.098 0 9.148 0 11.042-1.895zm.32-4.124c-.216 1.611-.62 2.515-1.274 3.17-.655.654-1.559 1.057-3.17 1.274-1.651.222-3.83.225-6.919.225h-1.125c-3.087 0-5.267-.003-6.918-.225-1.611-.216-2.515-.62-3.17-1.274-.654-.655-1.058-1.559-1.274-3.17-.222-1.651-.225-3.83-.225-6.919v-1.125c0-3.087.003-5.267.225-6.918.216-1.611.62-2.515 1.274-3.17.655-.654 1.559-1.058 3.17-1.274 1.651-.222 3.83-.225 6.919-.225h1.125c3.087 0 5.267.003 6.918.225 1.611.216 2.515.62 3.17 1.274.654.655 1.057 1.559 1.274 3.17.222 1.651.225 3.83.225 6.919v1.125c0 3.087-.003 5.267-.225 6.918z"/></g></svg></svg>